<svg xmlns="http://www.w3.org/2000/svg" width="46" height="59" viewBox="0 0 46 59">
  <g id="shopping_bag-24px" transform="translate(0.302 0.471)">
    <rect id="Rectangle_746" data-name="Rectangle 746" width="46" height="59" transform="translate(-0.302 -0.471)" fill="none"/>
    <path id="Path_209" data-name="Path 209" d="M40.385,12.462h-5.2a10.4,10.4,0,1,0-20.792,0H9.2A5.23,5.23,0,0,0,4,17.694V49.081a5.23,5.23,0,0,0,5.2,5.231H40.385a5.23,5.23,0,0,0,5.2-5.231V17.694A5.23,5.23,0,0,0,40.385,12.462ZM24.792,7.231a5.23,5.23,0,0,1,5.2,5.231h-10.4A5.23,5.23,0,0,1,24.792,7.231Zm15.594,41.85H9.2V17.694h5.2v5.231a2.6,2.6,0,1,0,5.2,0V17.694h10.4v5.231a2.6,2.6,0,1,0,5.2,0V17.694h5.2Z" transform="translate(-4 2.511)"/>
  </g>
</svg>
